<svg width="36" height="37" viewBox="0 0 36 37" fill="none" xmlns="http://www.w3.org/2000/svg">
<g clip-path="url(#clip0_562_218)">
<path d="M27.5625 0.5H8.4375C3.7776 0.5 0 4.2776 0 8.9375V28.0625C0 32.7224 3.7776 36.5 8.4375 36.5H27.5625C32.2224 36.5 36 32.7224 36 28.0625V8.9375C36 4.2776 32.2224 0.5 27.5625 0.5Z" fill="#330000"/>
<path d="M17.399 21.922H11.819L10.679 25.447C10.649 25.582 10.5291 25.672 10.3941 25.657H7.57397C7.40901 25.657 7.36401 25.567 7.40901 25.387L12.2391 11.482C12.2841 11.3321 12.3291 11.167 12.389 10.987C12.449 10.672 12.479 10.3421 12.479 10.012C12.4641 9.93708 12.524 9.86198 12.5991 9.84708H16.484C16.6041 9.84708 16.664 9.89208 16.679 9.96703L22.154 25.4171C22.199 25.582 22.154 25.657 22.0041 25.657H18.869C18.7641 25.672 18.659 25.5971 18.6291 25.492L17.399 21.922ZM12.6891 18.877H16.499C16.409 18.562 16.2891 18.187 16.1541 17.797C16.0191 17.392 15.8841 16.9571 15.7491 16.5071C15.599 16.042 15.464 15.592 15.314 15.127C15.1641 14.6621 15.0291 14.227 14.909 13.792C14.789 13.3721 14.684 12.982 14.5791 12.622H14.549C14.414 13.2671 14.249 13.9121 14.0391 14.557C13.8141 15.277 13.5891 16.027 13.349 16.7771C13.1553 17.4851 12.9352 18.1855 12.6891 18.877ZM25.499 12.472C25.004 12.487 24.5241 12.292 24.1641 11.947C23.8191 11.572 23.6391 11.077 23.654 10.5671C23.6391 10.057 23.834 9.57708 24.194 9.23198C24.554 8.88689 25.0341 8.70703 25.5291 8.70703C26.1141 8.70703 26.5641 8.88703 26.894 9.23198C27.2265 9.59562 27.4041 10.0746 27.389 10.5671C27.4041 11.077 27.2241 11.572 26.8641 11.947C26.5191 12.307 26.0091 12.5021 25.499 12.472ZM23.8191 25.492V13.9421C23.8191 13.792 23.879 13.732 24.014 13.732H26.984C27.119 13.732 27.1791 13.8071 27.1791 13.9421V25.492C27.1791 25.657 27.119 25.7321 26.984 25.7321H24.0441C23.8941 25.7321 23.8191 25.6421 23.8191 25.492Z" fill="#FF9A00"/>
</g>
<defs>
<clipPath id="clip0_562_218">
<rect width="36" height="36" fill="white" transform="translate(0 0.5)"/>
</clipPath>
</defs>
</svg>
