<svg width="37" height="37" viewBox="0 0 37 37" fill="none" xmlns="http://www.w3.org/2000/svg">
<g clip-path="url(#clip0_562_259)">
<path d="M5.79058 32.5977L2.96289 0.880859H34.0354L31.2049 32.5929L18.4803 36.1206L5.79058 32.5977Z" fill="#1572B6"/>
<path d="M18.5 33.423L28.7822 30.5722L31.2013 3.47266H18.5V33.423Z" fill="#33A9DC"/>
<path d="M18.5 14.9651H23.6474L24.0029 10.9818H18.5V7.0918H28.2543L28.1609 8.13552L27.2047 18.8551H18.5V14.9651Z" fill="white"/>
<path d="M18.5228 25.066L18.5056 25.071L14.1735 23.9013L13.8965 20.7988H9.99219L10.537 26.9067L18.5051 29.1182L18.5228 29.1131V25.066Z" fill="#EBEBEB"/>
<path d="M23.3169 18.6895L22.8483 23.8988L18.5098 25.0699V29.1171L26.4843 26.907L26.5428 26.2497L27.2195 18.6895H23.3169Z" fill="white"/>
<path d="M18.5137 7.0918V10.9818H9.11772L9.03981 10.1076L8.86262 8.13552L8.76953 7.0918H18.5137ZM18.5005 14.9657V18.8556H14.223L14.1451 17.9815L13.9676 16.0094L13.8748 14.9657H18.5005Z" fill="#EBEBEB"/>
</g>
<defs>
<clipPath id="clip0_562_259">
<rect width="36" height="36" fill="white" transform="translate(0.5 0.5)"/>
</clipPath>
</defs>
</svg>
