<svg width="37" height="37" viewBox="0 0 37 37" fill="none" xmlns="http://www.w3.org/2000/svg">
<g clip-path="url(#clip0_562_137)">
<path d="M13.4629 36.7812C16.8098 36.7812 19.5098 34.0813 19.5098 30.7344V24.6875H13.4629C10.116 24.6875 7.41602 27.3875 7.41602 30.7344C7.41602 34.0813 10.116 36.7812 13.4629 36.7812Z" fill="#0ACF83"/>
<path d="M7.41602 18.6406C7.41602 15.2938 10.116 12.5938 13.4629 12.5938H19.5098V24.6875H13.4629C10.116 24.6875 7.41602 21.9875 7.41602 18.6406Z" fill="#A259FF"/>
<path d="M7.41602 6.54688C7.41602 3.2 10.116 0.5 13.4629 0.5H19.5098V12.5938H13.4629C10.116 12.5938 7.41602 9.89375 7.41602 6.54688Z" fill="#F24E1E"/>
<path d="M19.5098 0.5H25.5566C28.9035 0.5 31.6035 3.2 31.6035 6.54688C31.6035 9.89375 28.9035 12.5938 25.5566 12.5938H19.5098V0.5Z" fill="#FF7262"/>
<path d="M31.6035 18.6406C31.6035 21.9875 28.9035 24.6875 25.5566 24.6875C22.2098 24.6875 19.5098 21.9875 19.5098 18.6406C19.5098 15.2938 22.2098 12.5938 25.5566 12.5938C28.9035 12.5938 31.6035 15.2938 31.6035 18.6406Z" fill="#1ABCFE"/>
</g>
<defs>
<clipPath id="clip0_562_137">
<rect width="36" height="36" fill="white" transform="translate(0.666016 0.5)"/>
</clipPath>
</defs>
</svg>
