<svg width="41" height="41" viewBox="0 0 41 41" fill="none" xmlns="http://www.w3.org/2000/svg">
<path fill-rule="evenodd" clip-rule="evenodd" d="M9.16471 2.16602C7.3966 2.16602 5.70091 2.86839 4.45067 4.11864C3.20043 5.36888 2.49805 7.06457 2.49805 8.83268V32.166C2.49805 33.9341 3.20043 35.6298 4.45067 36.8801C5.70091 38.1303 7.3966 38.8327 9.16471 38.8327H32.498C34.2662 38.8327 35.9618 38.1303 37.2121 36.8801C38.4623 35.6298 39.1647 33.9341 39.1647 32.166V8.83268C39.1647 7.06457 38.4623 5.36888 37.2121 4.11864C35.9618 2.86839 34.2662 2.16602 32.498 2.16602H9.16471ZM12.348 7.99935L20.8314 16.4827H12.348V24.9694L21.438 34.666V24.9694H29.3164L20.833 16.4843H29.3164V7.99935H12.348Z" fill="black"/>
</svg>
