<svg width="37" height="37" viewBox="0 0 37 37" fill="none" xmlns="http://www.w3.org/2000/svg">
<path d="M7.30522 31.1011L4.77734 2.75H32.5536L30.0223 31.0966L18.6486 34.25L7.30522 31.1011Z" fill="#E44F26"/>
<path d="M18.666 31.84L27.8573 29.2919L30.0195 5.06836H18.666V31.84Z" fill="#F1662A"/>
<path d="M18.666 15.5829H14.0648L13.7475 12.0223H18.666V8.54492H9.94727L10.0305 9.47867L10.8844 19.0603H18.666V15.5829ZM18.666 24.6133L18.6503 24.6178L14.778 23.5727L14.5305 20.7995H11.0396L11.5268 26.258L18.6503 28.2358L18.666 28.2313V24.6133Z" fill="#EBEBEB"/>
<path d="M18.6543 15.5829V19.0603H22.936L22.5333 23.5704L18.6543 24.6167V28.2347L25.7834 26.258L25.8352 25.6708L26.6519 16.5167L26.7374 15.5829H18.6543ZM18.6543 8.54492V12.0223H27.0535L27.1233 11.2415L27.2819 9.47867L27.3652 8.54492H18.6543Z" fill="white"/>
</svg>
