<svg width="37" height="37" viewBox="0 0 37 37" fill="none" xmlns="http://www.w3.org/2000/svg">
<g clip-path="url(#clip0_562_304)">
<path d="M28.2285 0.5H9.10352C4.44361 0.5 0.666016 4.2776 0.666016 8.9375V28.0625C0.666016 32.7224 4.44361 36.5 9.10352 36.5H28.2285C32.8884 36.5 36.666 32.7224 36.666 28.0625V8.9375C36.666 4.2776 32.8884 0.5 28.2285 0.5Z" fill="#F0DB4F"/>
<path d="M10.131 30.5842L12.8858 28.9169C13.4174 29.8592 13.9009 30.6566 15.0606 30.6566C16.1722 30.6566 16.8731 30.2218 16.8731 28.5303V17.0275H20.2563V28.5781C20.2563 32.0821 18.2023 33.6771 15.2056 33.6771C12.4993 33.6771 10.9283 32.2755 10.1309 30.5839M22.0938 30.2216L24.8484 28.6268C25.5736 29.811 26.5161 30.6809 28.1833 30.6809C29.5852 30.6809 30.479 29.98 30.479 29.0134C30.479 27.8535 29.5607 27.4426 28.0141 26.7662L27.1686 26.4035C24.7277 25.3646 23.1086 24.0596 23.1086 21.3047C23.1086 18.7673 25.0419 16.834 28.0627 16.834C30.2134 16.834 31.76 17.5832 32.8715 19.5406L30.2374 21.2322C29.6573 20.1931 29.0293 19.7823 28.0627 19.7823C27.0718 19.7823 26.4435 20.4106 26.4435 21.2322C26.4435 22.2471 27.0718 22.658 28.5217 23.2864L29.3674 23.6488C32.243 24.8814 33.8622 26.1377 33.8622 28.965C33.8622 32.0101 31.4699 33.6773 28.2559 33.6773C25.1145 33.6773 23.0845 32.1791 22.0938 30.2216Z" fill="#323330"/>
</g>
<defs>
<clipPath id="clip0_562_304">
<rect width="36" height="36" fill="white" transform="translate(0.666016 0.5)"/>
</clipPath>
</defs>
</svg>
