<svg width="37" height="37" viewBox="0 0 37 37" fill="none" xmlns="http://www.w3.org/2000/svg">
<g clip-path="url(#clip0_562_223)">
<path d="M27.8945 0.5H8.76953C4.10963 0.5 0.332031 4.2776 0.332031 8.9375V28.0625C0.332031 32.7224 4.10963 36.5 8.76953 36.5H27.8945C32.5544 36.5 36.332 32.7224 36.332 28.0625V8.9375C36.332 4.2776 32.5544 0.5 27.8945 0.5Z" fill="#001E36"/>
<path d="M8.43164 25.5376V10.1026C8.43164 9.99756 8.47664 9.93766 8.58169 9.93766C8.83664 9.93766 9.07669 9.93766 9.42164 9.92261C9.78164 9.90756 10.1567 9.90756 10.5617 9.89266C10.9667 9.87761 11.4016 9.87761 11.8667 9.86256C12.3316 9.84766 12.7816 9.84766 13.2316 9.84766C14.4616 9.84766 15.4816 9.99756 16.3217 10.3126C17.0747 10.5683 17.7612 10.9885 18.3316 11.5426C18.8149 12.0276 19.1883 12.6108 19.4267 13.2526C19.6517 13.8826 19.7716 14.5277 19.7716 15.2027C19.7716 16.4927 19.4716 17.5577 18.8716 18.3977C18.2716 19.2376 17.4316 19.8676 16.4567 20.2276C15.4366 20.6027 14.3116 20.7377 13.0817 20.7377C12.7217 20.7377 12.4816 20.7377 12.3316 20.7226C12.1815 20.7076 11.9716 20.7076 11.6867 20.7076V25.5226C11.7016 25.6276 11.6266 25.7176 11.5216 25.7327H8.61164C8.49169 25.7327 8.43164 25.6726 8.43164 25.5376ZM11.7016 12.8326V17.8726C11.9117 17.8876 12.1066 17.9027 12.2866 17.9027H13.0817C13.6667 17.9027 14.2517 17.8127 14.8066 17.6327C15.2867 17.4977 15.7066 17.2126 16.0366 16.8376C16.3516 16.4627 16.5017 15.9526 16.5017 15.2927C16.5158 14.8239 16.3961 14.3608 16.1566 13.9576C15.9016 13.5676 15.5416 13.2677 15.1067 13.1026C14.5516 12.8776 13.9516 12.7876 13.3366 12.8026C12.9467 12.8026 12.6016 12.8026 12.3167 12.8177C12.0166 12.8026 11.8066 12.8177 11.7016 12.8326ZM29.1316 16.9577C28.6816 16.7176 28.2017 16.5527 27.6916 16.4476C27.1366 16.3277 26.5817 16.2526 26.0116 16.2526C25.7116 16.2377 25.3966 16.2827 25.1116 16.3576C24.9167 16.4026 24.7516 16.5077 24.6467 16.6576C24.5716 16.7777 24.5266 16.9276 24.5266 17.0626C24.5266 17.1976 24.5866 17.3326 24.6766 17.4527C24.8116 17.6176 24.9916 17.7526 25.1867 17.8577C25.5345 18.0377 25.8898 18.2029 26.2516 18.3527C27.0616 18.6227 27.8417 18.9976 28.5617 19.4476C29.0567 19.7626 29.4617 20.1826 29.7466 20.6927C29.9866 21.1726 30.1066 21.6976 30.0917 22.2376C30.1066 22.9427 29.8966 23.6476 29.5067 24.2326C29.0883 24.8314 28.5045 25.2953 27.8266 25.5676C27.0916 25.8826 26.1916 26.0477 25.1116 26.0477C24.4217 26.0477 23.7467 25.9876 23.0717 25.8526C22.5426 25.7613 22.0281 25.5999 21.5417 25.3727C21.4366 25.3126 21.3617 25.2076 21.3766 25.0876V22.4776C21.3766 22.4326 21.3916 22.3726 21.4366 22.3426C21.4816 22.3127 21.5266 22.3276 21.5716 22.3577C22.1566 22.7026 22.7716 22.9427 23.4317 23.0926C24.0016 23.2426 24.6017 23.3176 25.2016 23.3176C25.7717 23.3176 26.1767 23.2426 26.4467 23.1076C26.6866 23.0026 26.8517 22.7476 26.8517 22.4776C26.8517 22.2677 26.7316 22.0726 26.4917 21.8776C26.2516 21.6827 25.7566 21.4577 25.0216 21.1726C24.2676 20.9069 23.5516 20.5438 22.8917 20.0926C22.4216 19.7577 22.0321 19.3221 21.7516 18.8176C21.5116 18.3376 21.3916 17.8127 21.4067 17.2876C21.4067 16.6427 21.5867 16.0276 21.9166 15.4727C22.2916 14.8726 22.8467 14.3927 23.4916 14.0926C24.1967 13.7326 25.0816 13.5676 26.1466 13.5676C26.7617 13.5676 27.3917 13.6126 28.0066 13.7026C28.4566 13.7627 28.8916 13.8826 29.2966 14.0476C29.3566 14.0626 29.4167 14.1227 29.4466 14.1826C29.4617 14.2426 29.4766 14.3027 29.4766 14.3626V16.8076C29.4766 16.8677 29.4466 16.9276 29.4016 16.9577C29.2666 16.9876 29.1917 16.9876 29.1316 16.9577Z" fill="#31A8FF"/>
</g>
<defs>
<clipPath id="clip0_562_223">
<rect width="36" height="36" fill="white" transform="translate(0.332031 0.5)"/>
</clipPath>
</defs>
</svg>
