<svg width="43" height="43" viewBox="0 0 43 43" fill="none" xmlns="http://www.w3.org/2000/svg">
<path d="M21.5 16.25C31.2703 16.25 37.25 19.6494 37.25 21.5C37.25 23.3506 31.2703 26.75 21.5 26.75C11.7298 26.75 5.75 23.3506 5.75 21.5C5.75 19.6494 11.7298 16.25 21.5 16.25ZM21.5 13.625C11.3518 13.625 3.125 17.1504 3.125 21.5C3.125 25.8496 11.3518 29.375 21.5 29.375C31.6483 29.375 39.875 25.8496 39.875 21.5C39.875 17.1504 31.6483 13.625 21.5 13.625Z" fill="#00BCD4"/>
<path d="M21.5 18.875C20.9808 18.875 20.4733 19.029 20.0416 19.3174C19.61 19.6058 19.2735 20.0158 19.0748 20.4955C18.8761 20.9751 18.8242 21.5029 18.9254 22.0121C19.0267 22.5213 19.2767 22.989 19.6438 23.3562C20.011 23.7233 20.4787 23.9733 20.9879 24.0746C21.4971 24.1758 22.0249 24.1239 22.5045 23.9252C22.9842 23.7265 23.3942 23.3901 23.6826 22.9584C23.971 22.5267 24.125 22.0192 24.125 21.5C24.125 20.8038 23.8484 20.1361 23.3562 19.6438C22.8639 19.1516 22.1962 18.875 21.5 18.875Z" fill="#00BCD4"/>
<path d="M14.2257 7.72852C16.873 7.72852 22.018 11.8983 26.046 18.8756C30.9312 27.3373 30.9771 34.2148 29.3745 35.1401C29.1897 35.2359 28.9827 35.2812 28.7747 35.2713C26.1274 35.2713 20.9811 31.1028 16.953 24.1256C12.0679 15.6639 12.022 8.78639 13.6245 7.86108C13.8098 7.76499 14.0172 7.7184 14.2257 7.72852ZM14.2243 5.10483C13.5554 5.09272 12.8954 5.25898 12.312 5.58652C8.54516 7.76133 9.60566 16.6496 14.6798 25.4381C18.99 32.9062 24.8123 37.8976 28.776 37.8976C29.4447 37.9087 30.1043 37.7415 30.687 37.4133C34.4539 35.2398 33.3934 26.3516 28.3193 17.5631C24.009 10.095 18.1868 5.10352 14.223 5.10352L14.2243 5.10483Z" fill="#00BCD4"/>
<path d="M28.7744 7.7271C28.9824 7.71721 29.1894 7.76249 29.3742 7.85835C30.9768 8.78498 30.9309 15.6625 26.0457 24.1242C22.0164 31.1014 16.8714 35.2712 14.2241 35.2712C14.016 35.2811 13.8091 35.2358 13.6242 35.14C12.0217 34.212 12.0676 27.3345 16.9527 18.8742C20.9821 11.8969 26.1271 7.7271 28.7744 7.7271ZM28.7744 5.1021C24.8107 5.1021 18.9897 10.0948 14.6782 17.5617C9.60668 26.3502 8.54487 35.2384 12.3117 37.4119C12.8948 37.7404 13.5549 37.9075 14.2241 37.8962C18.1878 37.8962 24.0087 32.9035 28.3203 25.4367C33.3918 16.6482 34.4536 7.75991 30.6867 5.58641C30.1036 5.25797 29.4436 5.0908 28.7744 5.1021Z" fill="#00BCD4"/>
</svg>
