<svg width="35" height="36" viewBox="0 0 35 36" fill="none" xmlns="http://www.w3.org/2000/svg">
<path d="M27.6507 18.0367L33.3264 12.3177C34.6362 10.998 34.6362 8.94502 33.3264 7.62526L25.2495 15.7637L23.7942 14.2974L29.5426 8.50509C30.8524 7.18534 30.8524 5.13239 29.5426 3.81264L21.3929 12.0244L19.9376 10.5581L25.7588 4.69247C27.0686 3.37272 27.0686 1.31976 25.7588 0L17.5364 8.1385L12.2973 2.78615C10.9875 1.4664 8.9501 1.4664 7.64033 2.78615L15.2079 10.4114L13.6798 11.9511L8.44075 6.6721C7.13098 5.35235 5.09354 5.35235 3.78377 6.6721L11.3514 14.2974L9.89605 15.7637L4.65696 10.4847C3.34719 9.16497 1.30977 9.16497 0 10.4847L7.42202 17.9633L1.74636 23.6823C0.436586 25.002 0.436586 27.055 1.74636 28.3748L9.82328 20.2363L11.2786 21.7026L5.53015 27.4949C4.22038 28.8147 4.22038 30.8676 5.53015 32.1874L13.6798 23.9756L15.1351 25.442L9.31392 31.3075C8.00415 32.6273 8.00415 34.6802 9.31392 36L17.4636 27.7882L22.7027 33.1405C24.0125 34.4603 26.0499 34.4603 27.3597 33.1405L19.7921 25.5153L21.3202 23.9756L26.5592 29.2546C27.869 30.5743 29.9064 30.5743 31.2162 29.2546L23.6486 21.6293L25.1039 20.1629L30.343 25.442C31.6528 26.7617 33.6902 26.7617 35 25.442L27.6507 18.0367ZM17.5364 12.7576L18.9917 14.224L17.4636 15.7637L16.0083 14.2974L17.5364 12.7576ZM13.6798 19.3564L12.3701 18.0367L13.6798 16.7169L14.9896 18.11L13.6798 19.3564ZM17.5364 23.169L16.0811 21.7026L17.6091 20.1629L19.0644 21.6293L17.5364 23.169ZM20.0832 17.9633L21.3929 16.6436L22.7027 17.9633L21.3929 19.2831L20.0832 17.9633Z" fill="#8CFF2E"/>
</svg>
