<svg width="116" height="36" viewBox="0 0 116 36" fill="none" xmlns="http://www.w3.org/2000/svg">
<path d="M27.6507 18.0367L33.3264 12.3177C34.6362 10.998 34.6362 8.94502 33.3264 7.62526L25.2495 15.7637L23.7942 14.2973L29.5426 8.50509C30.8524 7.18534 30.8524 5.13239 29.5426 3.81264L21.3929 12.0244L19.9376 10.5581L25.7588 4.69247C27.0686 3.37271 27.0686 1.31976 25.7588 0L17.5364 8.1385L12.2973 2.78615C10.9875 1.4664 8.9501 1.4664 7.64033 2.78615L15.2079 10.4114L13.6798 11.9511L8.44075 6.6721C7.13098 5.35235 5.09354 5.35235 3.78377 6.6721L11.3514 14.2973L9.89605 15.7637L4.65696 10.4847C3.34719 9.16497 1.30977 9.16497 0 10.4847L7.42202 17.9633L1.74636 23.6823C0.436586 25.002 0.436586 27.055 1.74636 28.3748L9.82328 20.2363L11.2786 21.7026L5.53015 27.4949C4.22038 28.8147 4.22038 30.8676 5.53015 32.1874L13.6798 23.9756L15.1351 25.442L9.31392 31.3075C8.00415 32.6273 8.00415 34.6802 9.31392 36L17.4636 27.7882L22.7027 33.1405C24.0125 34.4603 26.0499 34.4603 27.3597 33.1405L19.7921 25.5153L21.3202 23.9756L26.5592 29.2546C27.869 30.5743 29.9064 30.5743 31.2162 29.2546L23.6486 21.6293L25.1039 20.1629L30.343 25.442C31.6528 26.7617 33.6902 26.7617 35 25.442L27.6507 18.0367ZM17.5364 12.7576L18.9917 14.224L17.4636 15.7637L16.0083 14.2973L17.5364 12.7576ZM13.6798 19.3564L12.3701 18.0367L13.6798 16.7169L14.9896 18.11L13.6798 19.3564ZM17.5364 23.169L16.0811 21.7026L17.6091 20.1629L19.0644 21.6293L17.5364 23.169ZM20.0832 17.9633L21.3929 16.6436L22.7027 17.9633L21.3929 19.2831L20.0832 17.9633Z" fill="#8CFF2E"/>
<path d="M44.824 27V10.2H46.744L47.584 13.368V27H44.824ZM56.464 27L46.408 13.872L46.744 10.2L56.8 23.328L56.464 27ZM56.464 27L55.624 24.048V10.2H58.384V27H56.464ZM61.6911 27V15.48H64.3311V27H61.6911ZM63.0111 13.368C62.5631 13.368 62.1871 13.216 61.8831 12.912C61.5951 12.608 61.4511 12.232 61.4511 11.784C61.4511 11.336 61.5951 10.96 61.8831 10.656C62.1871 10.352 62.5631 10.2 63.0111 10.2C63.4751 10.2 63.8511 10.352 64.1391 10.656C64.4271 10.96 64.5711 11.336 64.5711 11.784C64.5711 12.232 64.4271 12.608 64.1391 12.912C63.8511 13.216 63.4751 13.368 63.0111 13.368ZM67.2921 27V15.48H69.9321V27H67.2921ZM74.9481 27V20.136C74.9481 19.368 74.7081 18.776 74.2281 18.36C73.7481 17.928 73.1561 17.712 72.4521 17.712C71.9721 17.712 71.5401 17.808 71.1561 18C70.7881 18.192 70.4921 18.472 70.2681 18.84C70.0441 19.192 69.9321 19.624 69.9321 20.136L68.9001 19.56C68.9001 18.68 69.0921 17.92 69.4761 17.28C69.8601 16.64 70.3801 16.144 71.0361 15.792C71.6921 15.424 72.4281 15.24 73.2441 15.24C74.0601 15.24 74.7961 15.416 75.4521 15.768C76.1081 16.12 76.6281 16.616 77.0121 17.256C77.3961 17.896 77.5881 18.664 77.5881 19.56V27H74.9481ZM82.6041 27V20.136C82.6041 19.368 82.3641 18.776 81.8841 18.36C81.4041 17.928 80.8121 17.712 80.1081 17.712C79.6441 17.712 79.2201 17.808 78.8361 18C78.4521 18.192 78.1481 18.472 77.9241 18.84C77.7001 19.192 77.5881 19.624 77.5881 20.136L76.1001 19.56C76.1801 18.68 76.4361 17.92 76.8681 17.28C77.3001 16.64 77.8521 16.144 78.5241 15.792C79.2121 15.424 79.9641 15.24 80.7801 15.24C81.6121 15.24 82.3641 15.416 83.0361 15.768C83.7081 16.12 84.2441 16.616 84.6441 17.256C85.0441 17.896 85.2441 18.664 85.2441 19.56V27H82.6041ZM87.988 27V15.48H90.628V27H87.988ZM89.308 13.368C88.86 13.368 88.484 13.216 88.18 12.912C87.892 12.608 87.748 12.232 87.748 11.784C87.748 11.336 87.892 10.96 88.18 10.656C88.484 10.352 88.86 10.2 89.308 10.2C89.772 10.2 90.148 10.352 90.436 10.656C90.724 10.96 90.868 11.336 90.868 11.784C90.868 12.232 90.724 12.608 90.436 12.912C90.148 13.216 89.772 13.368 89.308 13.368ZM97.357 27.24C96.717 27.24 96.101 27.16 95.509 27C94.917 26.824 94.373 26.584 93.877 26.28C93.381 25.96 92.949 25.576 92.581 25.128L94.261 23.448C94.661 23.912 95.117 24.264 95.629 24.504C96.157 24.728 96.749 24.84 97.405 24.84C97.997 24.84 98.445 24.752 98.749 24.576C99.053 24.4 99.205 24.144 99.205 23.808C99.205 23.456 99.061 23.184 98.773 22.992C98.485 22.8 98.109 22.64 97.645 22.512C97.197 22.368 96.717 22.224 96.205 22.08C95.709 21.936 95.229 21.744 94.765 21.504C94.317 21.248 93.949 20.904 93.661 20.472C93.373 20.04 93.229 19.48 93.229 18.792C93.229 18.056 93.397 17.424 93.733 16.896C94.085 16.368 94.573 15.96 95.197 15.672C95.837 15.384 96.597 15.24 97.477 15.24C98.405 15.24 99.221 15.408 99.925 15.744C100.645 16.064 101.245 16.552 101.725 17.208L100.045 18.888C99.709 18.472 99.325 18.16 98.893 17.952C98.461 17.744 97.965 17.64 97.405 17.64C96.877 17.64 96.469 17.72 96.181 17.88C95.893 18.04 95.749 18.272 95.749 18.576C95.749 18.896 95.893 19.144 96.181 19.32C96.469 19.496 96.837 19.648 97.285 19.776C97.749 19.904 98.229 20.048 98.725 20.208C99.237 20.352 99.717 20.56 100.165 20.832C100.629 21.088 101.005 21.44 101.293 21.888C101.581 22.32 101.725 22.888 101.725 23.592C101.725 24.712 101.333 25.6 100.549 26.256C99.765 26.912 98.701 27.24 97.357 27.24ZM111.798 27V20.352C111.798 19.584 111.55 18.952 111.054 18.456C110.574 17.96 109.95 17.712 109.182 17.712C108.67 17.712 108.214 17.824 107.814 18.048C107.414 18.272 107.102 18.584 106.878 18.984C106.654 19.384 106.542 19.84 106.542 20.352L105.51 19.776C105.51 18.896 105.702 18.12 106.086 17.448C106.47 16.76 106.998 16.224 107.67 15.84C108.358 15.44 109.126 15.24 109.974 15.24C110.838 15.24 111.606 15.432 112.278 15.816C112.95 16.2 113.478 16.736 113.862 17.424C114.246 18.096 114.438 18.88 114.438 19.776V27H111.798ZM103.902 27V9.72H106.542V27H103.902Z" fill="white"/>
</svg>
