<svg width="28" height="28" viewBox="0 0 28 28" fill="none" xmlns="http://www.w3.org/2000/svg">
<path d="M21.5136 3.57031H6.48698C5.71409 3.57247 4.97348 3.88045 4.42697 4.42697C3.88045 4.97348 3.57247 5.71409 3.57031 6.48698V21.5136C3.57247 22.2865 3.88045 23.0271 4.42697 23.5737C4.97348 24.1202 5.71409 24.4282 6.48698 24.4303H21.5136C22.2872 24.4303 23.0291 24.123 23.576 23.576C24.123 23.0291 24.4303 22.2872 24.4303 21.5136V6.48698C24.4303 5.71343 24.123 4.97157 23.576 4.42458C23.0291 3.8776 22.2872 3.57031 21.5136 3.57031ZM23.2636 21.5136C23.2606 21.9768 23.0752 22.4202 22.7477 22.7477C22.4202 23.0752 21.9768 23.2606 21.5136 23.2636H6.48698C6.02379 23.2606 5.58045 23.0752 5.25292 22.7477C4.92539 22.4202 4.74004 21.9768 4.73698 21.5136V6.48698C4.74004 6.02379 4.92539 5.58045 5.25292 5.25292C5.58045 4.92539 6.02379 4.74004 6.48698 4.73698H21.5136C21.9768 4.74004 22.4202 4.92539 22.7477 5.25292C23.0752 5.58045 23.2606 6.02379 23.2636 6.48698V21.5136Z" fill="black"/>
<path d="M7.43945 12.5397C7.43945 12.2303 7.56237 11.9335 7.78116 11.7148C7.99995 11.496 8.2967 11.373 8.60612 11.373C8.91554 11.373 9.21229 11.496 9.43108 11.7148C9.64987 11.9335 9.77279 12.2303 9.77279 12.5397V20.123C9.77279 20.4325 9.64987 20.7292 9.43108 20.948C9.21229 21.1668 8.91554 21.2897 8.60612 21.2897C8.2967 21.2897 7.99995 21.1668 7.78116 20.948C7.56237 20.7292 7.43945 20.4325 7.43945 20.123V12.5397Z" fill="black"/>
<path d="M8.60612 9.03451C9.25045 9.03451 9.77279 8.51217 9.77279 7.86784C9.77279 7.22351 9.25045 6.70117 8.60612 6.70117C7.96179 6.70117 7.43945 7.22351 7.43945 7.86784C7.43945 8.51217 7.96179 9.03451 8.60612 9.03451Z" fill="black"/>
<path d="M20.5561 15.5987V20.1254C20.5561 20.4348 20.4332 20.7316 20.2144 20.9504C19.9956 21.1692 19.6988 21.2921 19.3894 21.2921C19.08 21.2921 18.7833 21.1692 18.5645 20.9504C18.3457 20.7316 18.2228 20.4348 18.2228 20.1254V15.5987C18.2228 15.099 18.0243 14.6198 17.6709 14.2664C17.3176 13.9131 16.8383 13.7146 16.3386 13.7146C15.8389 13.7146 15.3596 13.9131 15.0063 14.2664C14.6529 14.6198 14.4544 15.099 14.4544 15.5987V20.1254C14.4544 20.4348 14.3315 20.7316 14.1127 20.9504C13.8939 21.1692 13.5972 21.2921 13.2878 21.2921C12.9783 21.2921 12.6816 21.1692 12.4628 20.9504C12.244 20.7316 12.1211 20.4348 12.1211 20.1254V12.5421C12.1259 12.2342 12.2504 11.9402 12.4681 11.7224C12.6859 11.5047 12.9798 11.3802 13.2878 11.3754C13.4854 11.37 13.6808 11.4181 13.8533 11.5146C14.0258 11.6111 14.169 11.7525 14.2678 11.9237C14.9093 11.5602 15.635 11.3714 16.3724 11.3763C17.1097 11.3811 17.8329 11.5795 18.4695 11.9516C19.1061 12.3237 19.6339 12.8563 20.0001 13.4964C20.3663 14.1364 20.558 14.8614 20.5561 15.5987Z" fill="black"/>
</svg>
